<mxfile host="Electron" modified="2024-06-15T05:58:46.326Z" agent="Mozilla/5.0 (Windows NT 10.0; Win64; x64) AppleWebKit/537.36 (KHTML, like Gecko) draw.io/24.5.3 Chrome/124.0.6367.207 Electron/30.0.6 Safari/537.36" etag="2ZCV7yUV7psqrTb1fag2" version="24.5.3" type="device" pages="2">
  <diagram name="Virtual Contributor" id="MRnfxQKDurDMuoabgHoY">
    <mxGraphModel dx="538" dy="374" grid="0" gridSize="10" guides="1" tooltips="1" connect="1" arrows="1" fold="1" page="1" pageScale="1" pageWidth="827" pageHeight="1169" math="0" shadow="0">
      <root>
        <mxCell id="dUI4cDzIz1VOxFGTC87Q-0" />
        <mxCell id="dUI4cDzIz1VOxFGTC87Q-1" parent="dUI4cDzIz1VOxFGTC87Q-0" />
        <mxCell id="dUI4cDzIz1VOxFGTC87Q-4" value="Alkemio Virtual Contributors" style="text;html=1;strokeColor=none;fillColor=none;align=center;verticalAlign=middle;whiteSpace=wrap;rounded=0;fontSize=20;fontStyle=1" parent="dUI4cDzIz1VOxFGTC87Q-1" vertex="1">
          <mxGeometry x="231" y="19" width="414.5" height="20" as="geometry" />
        </mxCell>
        <mxCell id="dUI4cDzIz1VOxFGTC87Q-43" value="" style="group" parent="dUI4cDzIz1VOxFGTC87Q-1" vertex="1" connectable="0">
          <mxGeometry x="66" y="39" width="425.55" height="487" as="geometry" />
        </mxCell>
        <mxCell id="dUI4cDzIz1VOxFGTC87Q-44" value="" style="rounded=1;whiteSpace=wrap;html=1;fillColor=#dae8fc;strokeColor=#6c8ebf;" parent="dUI4cDzIz1VOxFGTC87Q-43" vertex="1">
          <mxGeometry x="53" y="24" width="304" height="463" as="geometry" />
        </mxCell>
        <mxCell id="Y0LftO13HtPoRRJd-vwJ-6" value="&lt;b&gt;Virtual Contributors&lt;/b&gt;" style="rounded=1;whiteSpace=wrap;html=1;fillColor=#d5e8d4;strokeColor=#82b366;verticalAlign=top;" vertex="1" parent="dUI4cDzIz1VOxFGTC87Q-43">
          <mxGeometry x="84" y="74" width="249" height="183" as="geometry" />
        </mxCell>
        <mxCell id="Y0LftO13HtPoRRJd-vwJ-0" value="" style="group;imageAspect=0;" vertex="1" connectable="0" parent="dUI4cDzIz1VOxFGTC87Q-43">
          <mxGeometry x="269" y="122" width="71" height="98" as="geometry" />
        </mxCell>
        <mxCell id="Y0LftO13HtPoRRJd-vwJ-3" value="" style="group" vertex="1" connectable="0" parent="Y0LftO13HtPoRRJd-vwJ-0">
          <mxGeometry width="48.93000000000001" height="86.74324324324324" as="geometry" />
        </mxCell>
        <mxCell id="aCImYNLZD4ZDr4k8riKj-12" value="" style="group" vertex="1" connectable="0" parent="Y0LftO13HtPoRRJd-vwJ-3">
          <mxGeometry width="38.458333333333336" height="58.37158469945355" as="geometry" />
        </mxCell>
        <mxCell id="aCImYNLZD4ZDr4k8riKj-9" value="" style="shape=actor;whiteSpace=wrap;html=1;" vertex="1" parent="aCImYNLZD4ZDr4k8riKj-12">
          <mxGeometry width="38.10976837865055" height="54.08743169398907" as="geometry" />
        </mxCell>
        <mxCell id="aCImYNLZD4ZDr4k8riKj-11" value="" style="shape=sumEllipse;perimeter=ellipsePerimeter;whiteSpace=wrap;html=1;backgroundOutline=1;" vertex="1" parent="aCImYNLZD4ZDr4k8riKj-12">
          <mxGeometry x="13.013091641490433" y="3.2131147540983607" width="13.013091641490433" height="14.994535519125684" as="geometry" />
        </mxCell>
        <mxCell id="Y0LftO13HtPoRRJd-vwJ-2" value="" style="rounded=0;whiteSpace=wrap;html=1;" vertex="1" parent="Y0LftO13HtPoRRJd-vwJ-3">
          <mxGeometry y="54.2972972972973" width="37.86666666666667" height="32.445945945945944" as="geometry" />
        </mxCell>
        <mxCell id="Y0LftO13HtPoRRJd-vwJ-1" value="" style="whiteSpace=wrap;html=1;aspect=fixed;strokeColor=none;" vertex="1" parent="Y0LftO13HtPoRRJd-vwJ-3">
          <mxGeometry x="0.4647532729103726" y="43.37704918032787" width="37.180261832829814" height="37.180261832829814" as="geometry" />
        </mxCell>
        <mxCell id="Y0LftO13HtPoRRJd-vwJ-32" value="VC3" style="text;html=1;align=center;verticalAlign=middle;whiteSpace=wrap;rounded=0;" vertex="1" parent="Y0LftO13HtPoRRJd-vwJ-3">
          <mxGeometry x="-11.069999999999993" y="50.56" width="60" height="30" as="geometry" />
        </mxCell>
        <mxCell id="Y0LftO13HtPoRRJd-vwJ-9" value="" style="group;imageAspect=0;" vertex="1" connectable="0" parent="dUI4cDzIz1VOxFGTC87Q-43">
          <mxGeometry x="190.9" y="134.97" width="71" height="98" as="geometry" />
        </mxCell>
        <mxCell id="Y0LftO13HtPoRRJd-vwJ-10" value="" style="group" vertex="1" connectable="0" parent="Y0LftO13HtPoRRJd-vwJ-9">
          <mxGeometry width="49.22999999999999" height="86.74324324324324" as="geometry" />
        </mxCell>
        <mxCell id="Y0LftO13HtPoRRJd-vwJ-11" value="" style="group" vertex="1" connectable="0" parent="Y0LftO13HtPoRRJd-vwJ-10">
          <mxGeometry width="38.458333333333336" height="58.37158469945355" as="geometry" />
        </mxCell>
        <mxCell id="Y0LftO13HtPoRRJd-vwJ-12" value="" style="shape=actor;whiteSpace=wrap;html=1;" vertex="1" parent="Y0LftO13HtPoRRJd-vwJ-11">
          <mxGeometry width="38.10976837865055" height="54.08743169398907" as="geometry" />
        </mxCell>
        <mxCell id="Y0LftO13HtPoRRJd-vwJ-13" value="" style="shape=sumEllipse;perimeter=ellipsePerimeter;whiteSpace=wrap;html=1;backgroundOutline=1;" vertex="1" parent="Y0LftO13HtPoRRJd-vwJ-11">
          <mxGeometry x="13.013091641490433" y="3.2131147540983607" width="13.013091641490433" height="14.994535519125684" as="geometry" />
        </mxCell>
        <mxCell id="Y0LftO13HtPoRRJd-vwJ-14" value="" style="rounded=0;whiteSpace=wrap;html=1;" vertex="1" parent="Y0LftO13HtPoRRJd-vwJ-10">
          <mxGeometry y="54.2972972972973" width="37.86666666666667" height="32.445945945945944" as="geometry" />
        </mxCell>
        <mxCell id="Y0LftO13HtPoRRJd-vwJ-15" value="" style="whiteSpace=wrap;html=1;aspect=fixed;strokeColor=none;" vertex="1" parent="Y0LftO13HtPoRRJd-vwJ-10">
          <mxGeometry x="0.4647532729103726" y="43.37704918032787" width="37.180261832829814" height="37.180261832829814" as="geometry" />
        </mxCell>
        <mxCell id="Y0LftO13HtPoRRJd-vwJ-31" value="VC2" style="text;html=1;align=center;verticalAlign=middle;whiteSpace=wrap;rounded=0;" vertex="1" parent="Y0LftO13HtPoRRJd-vwJ-10">
          <mxGeometry x="-10.77000000000001" y="50.56" width="60" height="30" as="geometry" />
        </mxCell>
        <mxCell id="Y0LftO13HtPoRRJd-vwJ-19" value="" style="group;imageAspect=0;" vertex="1" connectable="0" parent="dUI4cDzIz1VOxFGTC87Q-43">
          <mxGeometry x="112.53" y="153.18" width="71" height="98" as="geometry" />
        </mxCell>
        <mxCell id="Y0LftO13HtPoRRJd-vwJ-20" value="" style="group" vertex="1" connectable="0" parent="Y0LftO13HtPoRRJd-vwJ-19">
          <mxGeometry width="48.93000000000001" height="86.74324324324324" as="geometry" />
        </mxCell>
        <mxCell id="Y0LftO13HtPoRRJd-vwJ-21" value="" style="group" vertex="1" connectable="0" parent="Y0LftO13HtPoRRJd-vwJ-20">
          <mxGeometry width="38.458333333333336" height="58.37158469945355" as="geometry" />
        </mxCell>
        <mxCell id="Y0LftO13HtPoRRJd-vwJ-22" value="" style="shape=actor;whiteSpace=wrap;html=1;" vertex="1" parent="Y0LftO13HtPoRRJd-vwJ-21">
          <mxGeometry width="38.10976837865055" height="54.08743169398907" as="geometry" />
        </mxCell>
        <mxCell id="Y0LftO13HtPoRRJd-vwJ-23" value="" style="shape=sumEllipse;perimeter=ellipsePerimeter;whiteSpace=wrap;html=1;backgroundOutline=1;" vertex="1" parent="Y0LftO13HtPoRRJd-vwJ-21">
          <mxGeometry x="13.013091641490433" y="3.2131147540983607" width="13.013091641490433" height="14.994535519125684" as="geometry" />
        </mxCell>
        <mxCell id="Y0LftO13HtPoRRJd-vwJ-24" value="" style="rounded=0;whiteSpace=wrap;html=1;" vertex="1" parent="Y0LftO13HtPoRRJd-vwJ-20">
          <mxGeometry y="54.2972972972973" width="37.86666666666667" height="32.445945945945944" as="geometry" />
        </mxCell>
        <mxCell id="Y0LftO13HtPoRRJd-vwJ-25" value="" style="whiteSpace=wrap;html=1;aspect=fixed;strokeColor=none;" vertex="1" parent="Y0LftO13HtPoRRJd-vwJ-20">
          <mxGeometry x="0.4647532729103726" y="43.37704918032787" width="37.180261832829814" height="37.180261832829814" as="geometry" />
        </mxCell>
        <mxCell id="Y0LftO13HtPoRRJd-vwJ-33" value="VC1" style="text;html=1;align=center;verticalAlign=middle;whiteSpace=wrap;rounded=0;" vertex="1" parent="Y0LftO13HtPoRRJd-vwJ-20">
          <mxGeometry x="-11.069999999999993" y="50.56" width="60" height="30" as="geometry" />
        </mxCell>
        <mxCell id="Y0LftO13HtPoRRJd-vwJ-28" value="&lt;b&gt;Spaces&lt;/b&gt;" style="rounded=1;whiteSpace=wrap;html=1;fillColor=#d5e8d4;strokeColor=#82b366;verticalAlign=top;" vertex="1" parent="dUI4cDzIz1VOxFGTC87Q-43">
          <mxGeometry x="87.5" y="276" width="249" height="191" as="geometry" />
        </mxCell>
        <mxCell id="Y0LftO13HtPoRRJd-vwJ-29" value="Space 1" style="rounded=1;whiteSpace=wrap;html=1;fillColor=#f5f5f5;fontColor=#333333;strokeColor=#666666;verticalAlign=top;" vertex="1" parent="dUI4cDzIz1VOxFGTC87Q-43">
          <mxGeometry x="107" y="338" width="95" height="113" as="geometry" />
        </mxCell>
        <mxCell id="Y0LftO13HtPoRRJd-vwJ-34" value="Space 2" style="rounded=1;whiteSpace=wrap;html=1;fillColor=#f5f5f5;fontColor=#333333;strokeColor=#666666;verticalAlign=top;" vertex="1" parent="dUI4cDzIz1VOxFGTC87Q-43">
          <mxGeometry x="220" y="336" width="95" height="114" as="geometry" />
        </mxCell>
        <mxCell id="Y0LftO13HtPoRRJd-vwJ-59" value="" style="group;imageAspect=0;" vertex="1" connectable="0" parent="dUI4cDzIz1VOxFGTC87Q-43">
          <mxGeometry x="230" y="371.03" width="46.46" height="71.97000000000003" as="geometry" />
        </mxCell>
        <mxCell id="Y0LftO13HtPoRRJd-vwJ-60" value="" style="group" vertex="1" connectable="0" parent="Y0LftO13HtPoRRJd-vwJ-59">
          <mxGeometry width="46.46" height="71.97000000000003" as="geometry" />
        </mxCell>
        <mxCell id="Y0LftO13HtPoRRJd-vwJ-61" value="" style="group" vertex="1" connectable="0" parent="Y0LftO13HtPoRRJd-vwJ-60">
          <mxGeometry width="17.582500000000003" height="25.612021857923494" as="geometry" />
        </mxCell>
        <mxCell id="Y0LftO13HtPoRRJd-vwJ-62" value="" style="shape=actor;whiteSpace=wrap;html=1;" vertex="1" parent="Y0LftO13HtPoRRJd-vwJ-61">
          <mxGeometry width="17.423141993957707" height="23.732240437158467" as="geometry" />
        </mxCell>
        <mxCell id="Y0LftO13HtPoRRJd-vwJ-63" value="" style="shape=sumEllipse;perimeter=ellipsePerimeter;whiteSpace=wrap;html=1;backgroundOutline=1;" vertex="1" parent="Y0LftO13HtPoRRJd-vwJ-61">
          <mxGeometry x="5.949365558912388" y="1.4098360655737705" width="5.949365558912388" height="6.579234972677596" as="geometry" />
        </mxCell>
        <mxCell id="Y0LftO13HtPoRRJd-vwJ-64" value="" style="rounded=0;whiteSpace=wrap;html=1;" vertex="1" parent="Y0LftO13HtPoRRJd-vwJ-60">
          <mxGeometry y="23.824324324324323" width="17.312" height="14.236486486486486" as="geometry" />
        </mxCell>
        <mxCell id="Y0LftO13HtPoRRJd-vwJ-65" value="" style="whiteSpace=wrap;html=1;aspect=fixed;strokeColor=none;" vertex="1" parent="Y0LftO13HtPoRRJd-vwJ-60">
          <mxGeometry x="0.2124773413897281" y="19.0327868852459" width="16.313788355221245" height="16.313788355221245" as="geometry" />
        </mxCell>
        <mxCell id="dUI4cDzIz1VOxFGTC87Q-69" value="&lt;div style=&quot;font-size: 10px;&quot;&gt;&lt;font style=&quot;font-size: 10px;&quot;&gt;Allows usage of AI as a contributor on Alkemio&lt;/font&gt;&lt;/div&gt;" style="text;html=1;fillColor=none;align=center;verticalAlign=middle;whiteSpace=wrap;rounded=1;strokeColor=none;fontSize=10;" parent="dUI4cDzIz1VOxFGTC87Q-43" vertex="1">
          <mxGeometry x="103" y="97" width="218" height="24" as="geometry" />
        </mxCell>
        <mxCell id="Y0LftO13HtPoRRJd-vwJ-91" value="&lt;div style=&quot;font-size: 10px;&quot;&gt;&lt;font style=&quot;font-size: 10px;&quot;&gt;Invite VCs to join and contribute&amp;nbsp;&lt;/font&gt;&lt;/div&gt;&lt;div style=&quot;font-size: 10px;&quot;&gt;&lt;font style=&quot;font-size: 10px;&quot;&gt;together with users&lt;/font&gt;&lt;/div&gt;" style="text;html=1;fillColor=none;align=center;verticalAlign=middle;whiteSpace=wrap;rounded=1;strokeColor=none;fontSize=10;" vertex="1" parent="dUI4cDzIz1VOxFGTC87Q-43">
          <mxGeometry x="107" y="299" width="218" height="24" as="geometry" />
        </mxCell>
        <mxCell id="Y0LftO13HtPoRRJd-vwJ-93" value="" style="shape=umlActor;verticalLabelPosition=bottom;verticalAlign=top;html=1;outlineConnect=0;" vertex="1" parent="dUI4cDzIz1VOxFGTC87Q-43">
          <mxGeometry x="166" y="371.03" width="12" height="40" as="geometry" />
        </mxCell>
        <mxCell id="Y0LftO13HtPoRRJd-vwJ-101" value="" style="shape=umlActor;verticalLabelPosition=bottom;verticalAlign=top;html=1;outlineConnect=0;" vertex="1" parent="dUI4cDzIz1VOxFGTC87Q-43">
          <mxGeometry x="276.46000000000004" y="365" width="12" height="40" as="geometry" />
        </mxCell>
        <mxCell id="Y0LftO13HtPoRRJd-vwJ-103" value="" style="shape=umlActor;verticalLabelPosition=bottom;verticalAlign=top;html=1;outlineConnect=0;" vertex="1" parent="dUI4cDzIz1VOxFGTC87Q-43">
          <mxGeometry x="286" y="378" width="12" height="40" as="geometry" />
        </mxCell>
        <mxCell id="Y0LftO13HtPoRRJd-vwJ-100" value="" style="shape=umlActor;verticalLabelPosition=bottom;verticalAlign=top;html=1;outlineConnect=0;" vertex="1" parent="dUI4cDzIz1VOxFGTC87Q-43">
          <mxGeometry x="176" y="382" width="12" height="40" as="geometry" />
        </mxCell>
        <mxCell id="Y0LftO13HtPoRRJd-vwJ-102" value="" style="shape=umlActor;verticalLabelPosition=bottom;verticalAlign=top;html=1;outlineConnect=0;" vertex="1" parent="dUI4cDzIz1VOxFGTC87Q-43">
          <mxGeometry x="183.99999999999997" y="397" width="12" height="40" as="geometry" />
        </mxCell>
        <mxCell id="Y0LftO13HtPoRRJd-vwJ-35" value="" style="group;imageAspect=0;" vertex="1" connectable="0" parent="dUI4cDzIz1VOxFGTC87Q-43">
          <mxGeometry x="117" y="375" width="32.46" height="43" as="geometry" />
        </mxCell>
        <mxCell id="Y0LftO13HtPoRRJd-vwJ-36" value="" style="group" vertex="1" connectable="0" parent="Y0LftO13HtPoRRJd-vwJ-35">
          <mxGeometry width="22.36996901408451" height="38.06081081081081" as="geometry" />
        </mxCell>
        <mxCell id="Y0LftO13HtPoRRJd-vwJ-37" value="" style="group" vertex="1" connectable="0" parent="Y0LftO13HtPoRRJd-vwJ-36">
          <mxGeometry width="17.582500000000003" height="25.612021857923494" as="geometry" />
        </mxCell>
        <mxCell id="Y0LftO13HtPoRRJd-vwJ-38" value="" style="shape=actor;whiteSpace=wrap;html=1;" vertex="1" parent="Y0LftO13HtPoRRJd-vwJ-37">
          <mxGeometry width="17.423141993957707" height="23.732240437158467" as="geometry" />
        </mxCell>
        <mxCell id="Y0LftO13HtPoRRJd-vwJ-39" value="" style="shape=sumEllipse;perimeter=ellipsePerimeter;whiteSpace=wrap;html=1;backgroundOutline=1;" vertex="1" parent="Y0LftO13HtPoRRJd-vwJ-37">
          <mxGeometry x="5.949365558912388" y="1.4098360655737705" width="5.949365558912388" height="6.579234972677596" as="geometry" />
        </mxCell>
        <mxCell id="Y0LftO13HtPoRRJd-vwJ-40" value="" style="rounded=0;whiteSpace=wrap;html=1;" vertex="1" parent="Y0LftO13HtPoRRJd-vwJ-36">
          <mxGeometry y="23.824324324324323" width="17.312" height="14.236486486486486" as="geometry" />
        </mxCell>
        <mxCell id="Y0LftO13HtPoRRJd-vwJ-41" value="" style="whiteSpace=wrap;html=1;aspect=fixed;strokeColor=none;" vertex="1" parent="Y0LftO13HtPoRRJd-vwJ-36">
          <mxGeometry x="0.2124773413897281" y="19.0327868852459" width="16.313788355221245" height="16.313788355221245" as="geometry" />
        </mxCell>
        <mxCell id="Y0LftO13HtPoRRJd-vwJ-45" value="" style="group;imageAspect=0;" vertex="1" connectable="0" parent="dUI4cDzIz1VOxFGTC87Q-43">
          <mxGeometry x="127" y="385" width="32.46" height="43" as="geometry" />
        </mxCell>
        <mxCell id="Y0LftO13HtPoRRJd-vwJ-46" value="" style="group" vertex="1" connectable="0" parent="Y0LftO13HtPoRRJd-vwJ-45">
          <mxGeometry width="22.36996901408451" height="38.06081081081081" as="geometry" />
        </mxCell>
        <mxCell id="Y0LftO13HtPoRRJd-vwJ-47" value="" style="group" vertex="1" connectable="0" parent="Y0LftO13HtPoRRJd-vwJ-46">
          <mxGeometry width="17.582500000000003" height="25.612021857923494" as="geometry" />
        </mxCell>
        <mxCell id="Y0LftO13HtPoRRJd-vwJ-48" value="" style="shape=actor;whiteSpace=wrap;html=1;" vertex="1" parent="Y0LftO13HtPoRRJd-vwJ-47">
          <mxGeometry width="17.423141993957707" height="23.732240437158467" as="geometry" />
        </mxCell>
        <mxCell id="Y0LftO13HtPoRRJd-vwJ-49" value="" style="shape=sumEllipse;perimeter=ellipsePerimeter;whiteSpace=wrap;html=1;backgroundOutline=1;" vertex="1" parent="Y0LftO13HtPoRRJd-vwJ-47">
          <mxGeometry x="5.949365558912388" y="1.4098360655737705" width="5.949365558912388" height="6.579234972677596" as="geometry" />
        </mxCell>
        <mxCell id="Y0LftO13HtPoRRJd-vwJ-50" value="" style="rounded=0;whiteSpace=wrap;html=1;" vertex="1" parent="Y0LftO13HtPoRRJd-vwJ-46">
          <mxGeometry y="23.824324324324323" width="17.312" height="14.236486486486486" as="geometry" />
        </mxCell>
        <mxCell id="Y0LftO13HtPoRRJd-vwJ-51" value="" style="whiteSpace=wrap;html=1;aspect=fixed;strokeColor=none;" vertex="1" parent="Y0LftO13HtPoRRJd-vwJ-46">
          <mxGeometry x="0.2124773413897281" y="19.0327868852459" width="16.313788355221245" height="16.313788355221245" as="geometry" />
        </mxCell>
        <mxCell id="Y0LftO13HtPoRRJd-vwJ-52" value="" style="group;imageAspect=0;" vertex="1" connectable="0" parent="dUI4cDzIz1VOxFGTC87Q-43">
          <mxGeometry x="137" y="397" width="32" height="41" as="geometry" />
        </mxCell>
        <mxCell id="Y0LftO13HtPoRRJd-vwJ-53" value="" style="group" vertex="1" connectable="0" parent="Y0LftO13HtPoRRJd-vwJ-52">
          <mxGeometry width="22.052957746478874" height="36.29054054054054" as="geometry" />
        </mxCell>
        <mxCell id="Y0LftO13HtPoRRJd-vwJ-54" value="" style="group" vertex="1" connectable="0" parent="Y0LftO13HtPoRRJd-vwJ-53">
          <mxGeometry width="17.333333333333332" height="24.420765027322407" as="geometry" />
        </mxCell>
        <mxCell id="Y0LftO13HtPoRRJd-vwJ-55" value="" style="shape=actor;whiteSpace=wrap;html=1;" vertex="1" parent="Y0LftO13HtPoRRJd-vwJ-54">
          <mxGeometry width="17.176233635448135" height="22.62841530054645" as="geometry" />
        </mxCell>
        <mxCell id="Y0LftO13HtPoRRJd-vwJ-56" value="" style="shape=sumEllipse;perimeter=ellipsePerimeter;whiteSpace=wrap;html=1;backgroundOutline=1;" vertex="1" parent="Y0LftO13HtPoRRJd-vwJ-54">
          <mxGeometry x="5.865055387713998" y="1.3442622950819676" width="5.865055387713998" height="6.273224043715849" as="geometry" />
        </mxCell>
        <mxCell id="Y0LftO13HtPoRRJd-vwJ-57" value="" style="rounded=0;whiteSpace=wrap;html=1;" vertex="1" parent="Y0LftO13HtPoRRJd-vwJ-53">
          <mxGeometry y="22.716216216216218" width="17.066666666666666" height="13.574324324324326" as="geometry" />
        </mxCell>
        <mxCell id="Y0LftO13HtPoRRJd-vwJ-58" value="" style="whiteSpace=wrap;html=1;aspect=fixed;strokeColor=none;" vertex="1" parent="Y0LftO13HtPoRRJd-vwJ-53">
          <mxGeometry x="0.20946626384692846" y="18.14754098360656" width="15.555007501490026" height="15.555007501490026" as="geometry" />
        </mxCell>
        <mxCell id="Y0LftO13HtPoRRJd-vwJ-81" value="" style="group" vertex="1" connectable="0" parent="dUI4cDzIz1VOxFGTC87Q-43">
          <mxGeometry x="240" y="381.03" width="17.582500000000003" height="25.612021857923494" as="geometry" />
        </mxCell>
        <mxCell id="Y0LftO13HtPoRRJd-vwJ-82" value="" style="shape=actor;whiteSpace=wrap;html=1;" vertex="1" parent="Y0LftO13HtPoRRJd-vwJ-81">
          <mxGeometry width="17.423141993957707" height="23.732240437158467" as="geometry" />
        </mxCell>
        <mxCell id="Y0LftO13HtPoRRJd-vwJ-83" value="" style="shape=sumEllipse;perimeter=ellipsePerimeter;whiteSpace=wrap;html=1;backgroundOutline=1;" vertex="1" parent="Y0LftO13HtPoRRJd-vwJ-81">
          <mxGeometry x="5.949365558912388" y="1.4098360655737705" width="5.949365558912388" height="6.579234972677596" as="geometry" />
        </mxCell>
        <mxCell id="Y0LftO13HtPoRRJd-vwJ-84" value="" style="rounded=0;whiteSpace=wrap;html=1;" vertex="1" parent="dUI4cDzIz1VOxFGTC87Q-43">
          <mxGeometry x="240" y="404.85432432432435" width="17.312" height="14.236486486486486" as="geometry" />
        </mxCell>
        <mxCell id="Y0LftO13HtPoRRJd-vwJ-85" value="" style="whiteSpace=wrap;html=1;aspect=fixed;strokeColor=none;" vertex="1" parent="dUI4cDzIz1VOxFGTC87Q-43">
          <mxGeometry x="240.21247734138973" y="400.0627868852458" width="16.313788355221245" height="16.313788355221245" as="geometry" />
        </mxCell>
        <mxCell id="Y0LftO13HtPoRRJd-vwJ-86" value="" style="group" vertex="1" connectable="0" parent="dUI4cDzIz1VOxFGTC87Q-43">
          <mxGeometry x="250" y="391.03" width="17.582500000000003" height="25.612021857923494" as="geometry" />
        </mxCell>
        <mxCell id="Y0LftO13HtPoRRJd-vwJ-87" value="" style="shape=actor;whiteSpace=wrap;html=1;" vertex="1" parent="Y0LftO13HtPoRRJd-vwJ-86">
          <mxGeometry width="17.423141993957707" height="23.732240437158467" as="geometry" />
        </mxCell>
        <mxCell id="Y0LftO13HtPoRRJd-vwJ-88" value="" style="shape=sumEllipse;perimeter=ellipsePerimeter;whiteSpace=wrap;html=1;backgroundOutline=1;" vertex="1" parent="Y0LftO13HtPoRRJd-vwJ-86">
          <mxGeometry x="5.949365558912388" y="1.4098360655737705" width="5.949365558912388" height="6.579234972677596" as="geometry" />
        </mxCell>
        <mxCell id="Y0LftO13HtPoRRJd-vwJ-89" value="" style="rounded=0;whiteSpace=wrap;html=1;" vertex="1" parent="dUI4cDzIz1VOxFGTC87Q-43">
          <mxGeometry x="250" y="414.85432432432435" width="17.312" height="14.236486486486486" as="geometry" />
        </mxCell>
        <mxCell id="Y0LftO13HtPoRRJd-vwJ-90" value="" style="whiteSpace=wrap;html=1;aspect=fixed;strokeColor=none;" vertex="1" parent="dUI4cDzIz1VOxFGTC87Q-43">
          <mxGeometry x="250.21247734138973" y="410.0627868852458" width="16.313788355221245" height="16.313788355221245" as="geometry" />
        </mxCell>
        <mxCell id="Y0LftO13HtPoRRJd-vwJ-104" value="" style="shape=umlActor;verticalLabelPosition=bottom;verticalAlign=top;html=1;outlineConnect=0;" vertex="1" parent="dUI4cDzIz1VOxFGTC87Q-43">
          <mxGeometry x="296" y="388" width="12" height="40" as="geometry" />
        </mxCell>
        <mxCell id="Y0LftO13HtPoRRJd-vwJ-7" value="" style="group" vertex="1" connectable="0" parent="dUI4cDzIz1VOxFGTC87Q-1">
          <mxGeometry x="487" y="42" width="253" height="491" as="geometry" />
        </mxCell>
        <mxCell id="dUI4cDzIz1VOxFGTC87Q-12" value="" style="rounded=1;whiteSpace=wrap;html=1;strokeColor=#d6b656;fillColor=#fff2cc;container=0;" parent="Y0LftO13HtPoRRJd-vwJ-7" vertex="1">
          <mxGeometry x="9" y="21" width="241" height="343" as="geometry" />
        </mxCell>
        <mxCell id="aCImYNLZD4ZDr4k8riKj-4" value="&lt;b&gt;Legal Expert&amp;nbsp;&lt;/b&gt;&lt;div&gt;&lt;br&gt;&lt;/div&gt;&lt;div&gt;&lt;br&gt;&lt;/div&gt;&lt;div&gt;&lt;br&gt;&lt;/div&gt;&lt;div&gt;&lt;br&gt;&lt;/div&gt;&lt;div&gt;&lt;br&gt;&lt;/div&gt;&lt;div&gt;&lt;br&gt;&lt;/div&gt;" style="rounded=1;whiteSpace=wrap;html=1;arcSize=19;verticalAlign=top;container=0;" vertex="1" parent="Y0LftO13HtPoRRJd-vwJ-7">
          <mxGeometry x="43.5" y="93" width="172" height="67" as="geometry" />
        </mxCell>
        <mxCell id="Y0LftO13HtPoRRJd-vwJ-16" value="&lt;b&gt;Community Manager&lt;/b&gt;" style="rounded=1;whiteSpace=wrap;html=1;arcSize=19;verticalAlign=top;container=0;" vertex="1" parent="Y0LftO13HtPoRRJd-vwJ-7">
          <mxGeometry x="44.5" y="180" width="170" height="67" as="geometry" />
        </mxCell>
        <mxCell id="Y0LftO13HtPoRRJd-vwJ-18" value="&lt;b&gt;Mistral&lt;/b&gt;" style="rounded=1;whiteSpace=wrap;html=1;arcSize=19;verticalAlign=top;container=0;" vertex="1" parent="Y0LftO13HtPoRRJd-vwJ-7">
          <mxGeometry x="40" y="267" width="171" height="67" as="geometry" />
        </mxCell>
        <mxCell id="dUI4cDzIz1VOxFGTC87Q-15" value="&lt;font style=&quot;font-size: 18px&quot;&gt;&lt;b&gt;AI Services&lt;br&gt;&lt;/b&gt;&lt;/font&gt;" style="text;html=1;strokeColor=none;fillColor=none;align=center;verticalAlign=middle;whiteSpace=wrap;rounded=0;container=0;" parent="Y0LftO13HtPoRRJd-vwJ-7" vertex="1">
          <mxGeometry x="37" y="16.003652968036533" width="200" height="35.4337899543379" as="geometry" />
        </mxCell>
        <mxCell id="Y0LftO13HtPoRRJd-vwJ-105" value="&lt;div style=&quot;font-size: 10px;&quot;&gt;&lt;font style=&quot;font-size: 10px;&quot;&gt;Provide access to an AI powered capability&lt;/font&gt;&lt;/div&gt;" style="text;html=1;fillColor=none;align=center;verticalAlign=middle;whiteSpace=wrap;rounded=1;strokeColor=none;fontSize=10;" vertex="1" parent="Y0LftO13HtPoRRJd-vwJ-7">
          <mxGeometry x="24" y="54" width="218" height="24" as="geometry" />
        </mxCell>
        <mxCell id="Y0LftO13HtPoRRJd-vwJ-5" style="edgeStyle=orthogonalEdgeStyle;rounded=0;orthogonalLoop=1;jettySize=auto;html=1;entryX=0.008;entryY=0.385;entryDx=0;entryDy=0;entryPerimeter=0;exitX=0.9;exitY=0.5;exitDx=0;exitDy=0;exitPerimeter=0;" edge="1" parent="dUI4cDzIz1VOxFGTC87Q-1" source="aCImYNLZD4ZDr4k8riKj-9" target="aCImYNLZD4ZDr4k8riKj-4">
          <mxGeometry relative="1" as="geometry">
            <mxPoint x="382" y="221" as="sourcePoint" />
          </mxGeometry>
        </mxCell>
        <mxCell id="Y0LftO13HtPoRRJd-vwJ-17" style="edgeStyle=orthogonalEdgeStyle;rounded=0;orthogonalLoop=1;jettySize=auto;html=1;entryX=0;entryY=0.5;entryDx=0;entryDy=0;exitX=1;exitY=0.25;exitDx=0;exitDy=0;" edge="1" parent="dUI4cDzIz1VOxFGTC87Q-1" source="Y0LftO13HtPoRRJd-vwJ-15" target="Y0LftO13HtPoRRJd-vwJ-16">
          <mxGeometry relative="1" as="geometry">
            <mxPoint x="366" y="239" as="sourcePoint" />
            <mxPoint x="560" y="211" as="targetPoint" />
            <Array as="points">
              <mxPoint x="306" y="227" />
              <mxPoint x="306" y="256" />
            </Array>
          </mxGeometry>
        </mxCell>
        <mxCell id="Y0LftO13HtPoRRJd-vwJ-26" style="edgeStyle=orthogonalEdgeStyle;rounded=0;orthogonalLoop=1;jettySize=auto;html=1;entryX=0;entryY=0.5;entryDx=0;entryDy=0;exitX=1;exitY=0.25;exitDx=0;exitDy=0;" edge="1" parent="dUI4cDzIz1VOxFGTC87Q-1" source="Y0LftO13HtPoRRJd-vwJ-25" target="Y0LftO13HtPoRRJd-vwJ-18">
          <mxGeometry relative="1" as="geometry">
            <mxPoint x="288" y="253" as="sourcePoint" />
            <mxPoint x="561" y="304" as="targetPoint" />
            <Array as="points">
              <mxPoint x="233" y="245" />
              <mxPoint x="233" y="270" />
              <mxPoint x="449" y="270" />
              <mxPoint x="449" y="342" />
            </Array>
          </mxGeometry>
        </mxCell>
        <mxCell id="dUI4cDzIz1VOxFGTC87Q-48" value="&lt;b&gt;&lt;font style=&quot;font-size: 18px&quot;&gt;Alkemio Platform&lt;/font&gt;&lt;/b&gt;" style="text;html=1;strokeColor=none;fillColor=none;align=center;verticalAlign=middle;whiteSpace=wrap;rounded=0;" parent="dUI4cDzIz1VOxFGTC87Q-1" vertex="1">
          <mxGeometry x="94" y="65" width="354.55" height="40.43" as="geometry" />
        </mxCell>
      </root>
    </mxGraphModel>
  </diagram>
  <diagram name="Copy of License Framework" id="Owv3RO0qDHpvY25Dr1DV">
    <mxGraphModel grid="0" page="1" gridSize="10" guides="1" tooltips="1" connect="1" arrows="1" fold="1" pageScale="1" pageWidth="827" pageHeight="1169" math="0" shadow="0">
      <root>
        <mxCell id="ISd72FZfaRAHIMUnhY4a-0" />
        <mxCell id="ISd72FZfaRAHIMUnhY4a-1" parent="ISd72FZfaRAHIMUnhY4a-0" />
        <mxCell id="ISd72FZfaRAHIMUnhY4a-2" value="Alkemio Credential Based Licensing" style="text;html=1;strokeColor=none;fillColor=none;align=center;verticalAlign=middle;whiteSpace=wrap;rounded=0;fontSize=20;fontStyle=1" vertex="1" parent="ISd72FZfaRAHIMUnhY4a-1">
          <mxGeometry x="226" y="30" width="414.5" height="20" as="geometry" />
        </mxCell>
        <mxCell id="ISd72FZfaRAHIMUnhY4a-3" value="" style="group" vertex="1" connectable="0" parent="ISd72FZfaRAHIMUnhY4a-1">
          <mxGeometry x="529" y="256" width="247" height="383" as="geometry" />
        </mxCell>
        <mxCell id="ISd72FZfaRAHIMUnhY4a-4" value="" style="rounded=1;whiteSpace=wrap;html=1;strokeColor=#6c8ebf;fillColor=#66B2FF;" vertex="1" parent="ISd72FZfaRAHIMUnhY4a-3">
          <mxGeometry width="247" height="331" as="geometry" />
        </mxCell>
        <mxCell id="ISd72FZfaRAHIMUnhY4a-5" value="&lt;font style=&quot;font-size: 18px&quot;&gt;&lt;b&gt;AI Services: Alkemio&lt;br&gt;&lt;/b&gt;&lt;/font&gt;" style="text;html=1;strokeColor=none;fillColor=none;align=center;verticalAlign=middle;whiteSpace=wrap;rounded=0;" vertex="1" parent="ISd72FZfaRAHIMUnhY4a-3">
          <mxGeometry x="23.5" y="15" width="200" height="20" as="geometry" />
        </mxCell>
        <mxCell id="ISd72FZfaRAHIMUnhY4a-6" value="&lt;b&gt;Alkemio Expert Creator&lt;/b&gt;&lt;div&gt;&lt;br&gt;&lt;/div&gt;&lt;div&gt;&lt;br&gt;&lt;/div&gt;&lt;div&gt;&lt;br&gt;&lt;/div&gt;&lt;div&gt;&lt;br&gt;&lt;/div&gt;&lt;div&gt;&lt;br&gt;&lt;/div&gt;&lt;div&gt;&lt;br&gt;&lt;/div&gt;" style="rounded=1;whiteSpace=wrap;html=1;arcSize=19;verticalAlign=top;" vertex="1" parent="ISd72FZfaRAHIMUnhY4a-3">
          <mxGeometry x="33" y="68" width="190.5" height="187" as="geometry" />
        </mxCell>
        <mxCell id="ISd72FZfaRAHIMUnhY4a-7" value="" style="group;fillColor=#d5e8d4;strokeColor=#82b366;fillStyle=solid;opacity=50;rounded=1;align=center;verticalAlign=middle;fontFamily=Helvetica;fontSize=12;fontColor=default;" vertex="1" connectable="0" parent="ISd72FZfaRAHIMUnhY4a-3">
          <mxGeometry x="77.75" y="133" width="101" height="108" as="geometry" />
        </mxCell>
        <mxCell id="ISd72FZfaRAHIMUnhY4a-8" value="Expert 1" style="rounded=1;whiteSpace=wrap;html=1;verticalAlign=top;strokeColor=#82b366;align=center;fontFamily=Helvetica;fontSize=12;fontColor=default;fillColor=#d5e8d4;" vertex="1" parent="ISd72FZfaRAHIMUnhY4a-7">
          <mxGeometry width="101" height="107.99999999999999" as="geometry" />
        </mxCell>
        <mxCell id="ISd72FZfaRAHIMUnhY4a-9" value="Space 1" style="shape=cylinder3;whiteSpace=wrap;html=1;boundedLbl=1;backgroundOutline=1;size=8.333343505859375;fillColor=#fff2cc;rounded=1;strokeColor=#d6b656;align=center;verticalAlign=middle;fontFamily=Helvetica;fontSize=12;" vertex="1" parent="ISd72FZfaRAHIMUnhY4a-7">
          <mxGeometry x="19" y="46" width="60" height="49.37" as="geometry" />
        </mxCell>
        <mxCell id="ISd72FZfaRAHIMUnhY4a-10" value="" style="group" vertex="1" connectable="0" parent="ISd72FZfaRAHIMUnhY4a-1">
          <mxGeometry x="910" y="337" width="219" height="160" as="geometry" />
        </mxCell>
        <mxCell id="ISd72FZfaRAHIMUnhY4a-11" value="" style="rounded=1;whiteSpace=wrap;html=1;fillColor=#d5e8d4;strokeColor=#82b366;" vertex="1" parent="ISd72FZfaRAHIMUnhY4a-10">
          <mxGeometry width="219" height="160" as="geometry" />
        </mxCell>
        <mxCell id="ISd72FZfaRAHIMUnhY4a-12" value="&lt;b&gt;&lt;font style=&quot;font-size: 18px&quot;&gt;LLM&lt;/font&gt;&lt;/b&gt;" style="text;html=1;strokeColor=none;fillColor=none;align=center;verticalAlign=middle;whiteSpace=wrap;rounded=0;" vertex="1" parent="ISd72FZfaRAHIMUnhY4a-10">
          <mxGeometry x="47.004375" y="57" width="130.03125" height="35" as="geometry" />
        </mxCell>
        <mxCell id="ISd72FZfaRAHIMUnhY4a-13" value="" style="endArrow=classic;html=1;fontSize=8;entryX=0;entryY=0.5;entryDx=0;entryDy=0;edgeStyle=orthogonalEdgeStyle;exitX=1;exitY=0.5;exitDx=0;exitDy=0;" edge="1" parent="ISd72FZfaRAHIMUnhY4a-1" source="ISd72FZfaRAHIMUnhY4a-6" target="ISd72FZfaRAHIMUnhY4a-11">
          <mxGeometry width="50" height="50" relative="1" as="geometry">
            <mxPoint x="765" y="370" as="sourcePoint" />
            <mxPoint x="361" y="280" as="targetPoint" />
          </mxGeometry>
        </mxCell>
        <mxCell id="ISd72FZfaRAHIMUnhY4a-14" value="" style="group" vertex="1" connectable="0" parent="ISd72FZfaRAHIMUnhY4a-1">
          <mxGeometry x="29" y="231" width="390" height="393" as="geometry" />
        </mxCell>
        <mxCell id="ISd72FZfaRAHIMUnhY4a-15" value="" style="rounded=1;whiteSpace=wrap;html=1;fillColor=#dae8fc;strokeColor=#6c8ebf;" vertex="1" parent="ISd72FZfaRAHIMUnhY4a-14">
          <mxGeometry width="390.00000000000006" height="393" as="geometry" />
        </mxCell>
        <mxCell id="ISd72FZfaRAHIMUnhY4a-16" value="&lt;b&gt;&lt;font style=&quot;font-size: 18px&quot;&gt;Alkemio Platform&lt;/font&gt;&lt;/b&gt;" style="text;html=1;strokeColor=none;fillColor=none;align=center;verticalAlign=middle;whiteSpace=wrap;rounded=0;" vertex="1" parent="ISd72FZfaRAHIMUnhY4a-14">
          <mxGeometry x="17.72727272727273" y="18.714285714285715" width="354.5454545454546" height="37.42857142857143" as="geometry" />
        </mxCell>
        <mxCell id="ISd72FZfaRAHIMUnhY4a-17" value="&lt;b&gt;Fetaure Flag&lt;/b&gt;&lt;br&gt;- name: virtual-contributors&lt;br&gt;- enabled: true" style="rounded=1;whiteSpace=wrap;html=1;" vertex="1" parent="ISd72FZfaRAHIMUnhY4a-14">
          <mxGeometry x="29.618757192174918" y="294.4245341614906" width="336.81818181818187" height="74.85714285714286" as="geometry" />
        </mxCell>
        <mxCell id="ISd72FZfaRAHIMUnhY4a-18" value="&lt;font style=&quot;font-size: 18px&quot;&gt;There is a LicensePolicy that is applied, which has rules to determine when each Privelege is granted&lt;/font&gt;" style="text;html=1;fillColor=none;align=center;verticalAlign=middle;whiteSpace=wrap;rounded=1;strokeColor=#000000;" vertex="1" parent="ISd72FZfaRAHIMUnhY4a-1">
          <mxGeometry x="558" y="113" width="249" height="106" as="geometry" />
        </mxCell>
        <mxCell id="ISd72FZfaRAHIMUnhY4a-19" value="&lt;font style=&quot;font-size: 18px&quot;&gt;Virtual Contributor&lt;/font&gt;&lt;div&gt;&lt;font style=&quot;font-size: 18px&quot;&gt;- Allows usage of AI as a contributor on Alkemio&lt;/font&gt;&lt;/div&gt;" style="text;html=1;fillColor=none;align=center;verticalAlign=middle;whiteSpace=wrap;rounded=1;strokeColor=#000000;" vertex="1" parent="ISd72FZfaRAHIMUnhY4a-1">
          <mxGeometry x="70" y="113" width="235.5" height="102" as="geometry" />
        </mxCell>
        <mxCell id="ISd72FZfaRAHIMUnhY4a-20" value="&lt;font style=&quot;font-size: 18px&quot;&gt;Each action requires a type of License Privilege&lt;/font&gt;" style="text;html=1;fillColor=none;align=center;verticalAlign=middle;whiteSpace=wrap;rounded=1;strokeColor=#000000;" vertex="1" parent="ISd72FZfaRAHIMUnhY4a-1">
          <mxGeometry x="332.25" y="113" width="202" height="105" as="geometry" />
        </mxCell>
        <mxCell id="ISd72FZfaRAHIMUnhY4a-21" value="" style="group" vertex="1" connectable="0" parent="ISd72FZfaRAHIMUnhY4a-1">
          <mxGeometry x="439" y="595" width="82.75" height="109" as="geometry" />
        </mxCell>
        <mxCell id="ISd72FZfaRAHIMUnhY4a-22" value="" style="shape=actor;whiteSpace=wrap;html=1;" vertex="1" parent="ISd72FZfaRAHIMUnhY4a-21">
          <mxGeometry width="82" height="101" as="geometry" />
        </mxCell>
        <mxCell id="ISd72FZfaRAHIMUnhY4a-23" value="" style="shape=sumEllipse;perimeter=ellipsePerimeter;whiteSpace=wrap;html=1;backgroundOutline=1;" vertex="1" parent="ISd72FZfaRAHIMUnhY4a-21">
          <mxGeometry x="28" y="6" width="28" height="28" as="geometry" />
        </mxCell>
        <mxCell id="ISd72FZfaRAHIMUnhY4a-24" value="&lt;font style=&quot;font-size: 8px;&quot;&gt;&lt;b&gt;Profile&lt;/b&gt;&lt;/font&gt;&lt;div style=&quot;font-size: 8px;&quot;&gt;&lt;font style=&quot;font-size: 8px;&quot;&gt;- Knowledge&lt;/font&gt;&lt;/div&gt;&lt;div style=&quot;font-size: 8px;&quot;&gt;&lt;font style=&quot;font-size: 8px;&quot;&gt;- Provider&lt;/font&gt;&lt;/div&gt;&lt;div style=&quot;font-size: 8px;&quot;&gt;&lt;font style=&quot;font-size: 8px;&quot;&gt;- LLM&lt;/font&gt;&lt;/div&gt;&lt;div style=&quot;font-size: 8px;&quot;&gt;&lt;font style=&quot;font-size: 8px;&quot;&gt;- Personality&lt;/font&gt;&lt;/div&gt;&lt;div style=&quot;font-size: 8px;&quot;&gt;&lt;font style=&quot;font-size: 8px;&quot;&gt;- ...&lt;/font&gt;&lt;/div&gt;" style="text;html=1;strokeColor=none;fillColor=none;align=center;verticalAlign=middle;whiteSpace=wrap;rounded=0;fontSize=8;" vertex="1" parent="ISd72FZfaRAHIMUnhY4a-21">
          <mxGeometry x="-0.75" y="42" width="82.75" height="69" as="geometry" />
        </mxCell>
        <mxCell id="ISd72FZfaRAHIMUnhY4a-25" value="" style="whiteSpace=wrap;html=1;aspect=fixed;" vertex="1" parent="ISd72FZfaRAHIMUnhY4a-1">
          <mxGeometry x="439" y="696" width="82" height="82" as="geometry" />
        </mxCell>
        <mxCell id="ISd72FZfaRAHIMUnhY4a-26" value="&lt;font style=&quot;font-size: 8px;&quot;&gt;&lt;b&gt;Usage&lt;/b&gt;&lt;/font&gt;&lt;div style=&quot;font-size: 8px;&quot;&gt;&lt;font style=&quot;font-size: 8px;&quot;&gt;-&amp;nbsp; Context awareness&lt;/font&gt;&lt;/div&gt;&lt;div style=&quot;font-size: 8px;&quot;&gt;&lt;font style=&quot;font-size: 8px;&quot;&gt;- Interactions modes&lt;/font&gt;&lt;/div&gt;&lt;div style=&quot;font-size: 8px;&quot;&gt;&lt;br&gt;&lt;/div&gt;" style="text;html=1;strokeColor=none;fillColor=none;align=center;verticalAlign=middle;whiteSpace=wrap;rounded=0;fontSize=8;" vertex="1" parent="ISd72FZfaRAHIMUnhY4a-1">
          <mxGeometry x="438.25" y="718" width="82.75" height="50" as="geometry" />
        </mxCell>
      </root>
    </mxGraphModel>
  </diagram>
</mxfile>
